<?xml version="1.0" encoding="UTF-8"?>
<svg version="1.1" xmlns="http://www.w3.org/2000/svg" width="486" height="486">
<path d="M0 0 C0.91517395 -0.00687836 1.8303479 -0.01375671 2.77325439 -0.02084351 C5.72778318 -0.03798868 8.68214279 -0.04430422 11.63671875 -0.046875 C12.64266083 -0.04854675 13.64860291 -0.05021851 14.68502808 -0.05194092 C29.78474192 -0.05344546 44.60414977 0.42434931 59.54736328 2.78027344 C61.53110113 3.08235133 63.52350269 3.32959694 65.51904297 3.54003906 C73.5497214 4.51560329 73.5497214 4.51560329 77.24609375 7.796875 C77.931875 8.9209375 78.61765625 10.045 79.32421875 11.203125 C79.74896484 11.85796875 80.17371094 12.5128125 80.61132812 13.1875 C81.98657904 15.33074817 83.28516738 17.50710635 84.57421875 19.703125 C85.24324219 20.80333984 85.24324219 20.80333984 85.92578125 21.92578125 C88.34541361 26.02449183 89.92578663 29.36064234 90.32421875 34.203125 C91.64421875 34.203125 92.96421875 34.203125 94.32421875 34.203125 C94.18113281 33.26339844 94.18113281 33.26339844 94.03515625 32.3046875 C93.92429687 31.48742187 93.8134375 30.67015625 93.69921875 29.828125 C93.58320313 29.01601562 93.4671875 28.20390625 93.34765625 27.3671875 C93.33992187 26.65304688 93.3321875 25.93890625 93.32421875 25.203125 C95.32421875 23.203125 95.32421875 23.203125 97.75 22.9375 C99.17892578 22.94523437 99.17892578 22.94523437 100.63671875 22.953125 C101.58160156 22.94796875 102.52648437 22.9428125 103.5 22.9375 C107.60717361 23.32379019 110.39521618 24.27412243 113.32421875 27.203125 C113.59413781 29.89151885 113.41159232 32.49454436 113.32421875 35.203125 C109.72401367 37.00322754 105.54471445 37.06830289 101.5859375 37.60546875 C98.58463052 38.15540883 96.0984298 38.95915419 93.32421875 40.203125 C92.49191238 39.23847321 92.49191238 39.23847321 91.64279175 38.2543335 C88.95001356 35.872071 87.75807256 35.62597862 84.22705078 35.38378906 C83.19828827 35.3075531 82.16952576 35.23131714 81.10958862 35.152771 C79.98674469 35.09204407 78.86390076 35.03131714 77.70703125 34.96875 C76.52029816 34.89368225 75.33356506 34.8186145 74.11087036 34.74127197 C60.28566353 33.95206342 46.45149088 33.89929209 32.60791016 33.94238281 C28.92989406 33.95379763 25.25216694 33.9469793 21.57416058 33.93549728 C-42.75185527 32.82280844 -42.75185527 32.82280844 -100.67578125 56.203125 C-101.66578125 56.203125 -102.65578125 56.203125 -103.67578125 56.203125 C-101.14086999 49.22818283 -91.89495427 45.19668425 -85.52734375 42.18798828 C-76.37563278 38.22889623 -66.89033738 35.56888676 -57.17578125 33.390625 C-56.31218994 33.1956543 -55.44859863 33.00068359 -54.55883789 32.79980469 C-39.72359136 29.71666173 -24.71146874 28.90350475 -9.59949684 29.05279541 C-6.91775497 29.07900517 -4.23621743 29.09152052 -1.55436707 29.10107422 C4.13442186 29.12359562 9.82303723 29.16208199 15.51171875 29.203125 C22.12871019 29.25076857 28.74560175 29.2913812 35.36272621 29.31500244 C37.97252333 29.32772447 40.58199988 29.35271776 43.19169617 29.37841797 C60.87456328 30.08326973 60.87456328 30.08326973 77.32421875 25.203125 C77.25299903 22.21189665 76.95422959 19.99160482 75.05078125 17.609375 C63.83166785 7.2856838 46.59570687 5.92764911 32.07421875 5.078125 C30.86290283 5.00029785 29.65158691 4.9224707 28.40356445 4.84228516 C13.05985985 3.91566022 -2.30985639 3.54994742 -17.67578125 3.203125 C-17.67578125 2.543125 -17.67578125 1.883125 -17.67578125 1.203125 C-11.74966715 0.3525804 -5.98306742 0.0305696 0 0 Z M98.44921875 29.015625 C98.07796875 29.7375 97.70671875 30.459375 97.32421875 31.203125 C97.65421875 32.193125 97.98421875 33.183125 98.32421875 34.203125 C98.86046875 33.72875 99.39671875 33.254375 99.94921875 32.765625 C102.75264711 30.92126424 105.02042133 30.57855653 108.32421875 30.203125 C106.55892254 27.97327715 105.67188153 27.26396599 102.82421875 26.765625 C100.20021782 26.98405464 100.20021782 26.98405464 98.44921875 29.015625 Z " fill="#020202" transform="translate(233.67578125,182.796875)"/>
<path d="M0 0 C6.27 0 12.54 0 19 0 C19.495 7.92 19.495 7.92 20 16 C22.64 10.72 25.28 5.44 28 0 C33.94 0 39.88 0 46 0 C44.52529134 8.45451905 42.76141418 16.81597295 40.875 25.1875 C40.59785156 26.42564453 40.32070312 27.66378906 40.03515625 28.93945312 C39.3587239 31.96007345 38.67963794 34.98009932 38 38 C33.38 38 28.76 38 24 38 C24.33 35.03 24.66 32.06 25 29 C23.35 31.97 21.7 34.94 20 38 C16.04 38 12.08 38 8 38 C7.67 34.37 7.34 30.74 7 27 C6.01 30.63 5.02 34.26 4 38 C0.04 38 -3.92 38 -8 38 C-7.35792249 29.7615125 -5.42994133 21.93960698 -3.4375 13.9375 C-3.10429849 12.58150769 -2.77161218 11.22538867 -2.43945312 9.86914062 C-1.63135313 6.57818268 -0.81636756 3.28891681 0 0 Z " fill="#010101" transform="translate(205,257)"/>
<path d="M0 0 C0.7694696 0.06048523 1.53893921 0.12097046 2.33172607 0.18328857 C7.16602312 0.57939411 11.96406893 1.12288498 16.7734375 1.75390625 C16.7734375 2.41390625 16.7734375 3.07390625 16.7734375 3.75390625 C14.11620031 5.08252485 11.76543755 5.14728572 8.8046875 5.4375 C7.59296875 5.56060547 6.38125 5.68371094 5.1328125 5.81054688 C2.59122607 6.06136132 0.04956114 6.31138168 -2.4921875 6.56054688 C-12.99103667 7.43296996 -12.99103667 7.43296996 -23.2265625 9.75390625 C-23.5565625 10.41390625 -23.8865625 11.07390625 -24.2265625 11.75390625 C-7.18661608 15.1377254 14.58185351 15.72334856 30.04296875 6.3828125 C30.71714844 5.92777344 31.39132812 5.47273437 32.0859375 5.00390625 C34.75172812 3.24327021 36.14636867 2.67031823 39.3984375 1.94140625 C43.79509782 2.99986151 44.98571381 4.78064052 47.421875 8.4609375 C53.05679376 18.02075632 53.05679376 18.02075632 53.7734375 23.75390625 C52.4534375 23.75390625 51.1334375 23.75390625 49.7734375 23.75390625 C49.1546875 21.89765625 49.1546875 21.89765625 48.5234375 20.00390625 C47.15831047 16.43940789 46.04254593 13.93331187 42.7734375 11.75390625 C37.83737832 11.43002274 33.97919319 12.06878216 29.31640625 13.65234375 C28.12080078 14.049375 26.92519531 14.44640625 25.69335938 14.85546875 C24.46166016 15.27570313 23.22996094 15.6959375 21.9609375 16.12890625 C3.55843706 22.35056514 -14.06961222 26.43929509 -32.70703125 18.21875 C-35.58579803 16.79117867 -38.41938061 15.31682374 -41.2265625 13.75390625 C-41.2265625 12.10390625 -41.2265625 10.45390625 -41.2265625 8.75390625 C-33.97503957 6.04994855 -26.88987969 4.76067899 -19.2265625 3.75390625 C-25.25916953 1.74303724 -32.14222115 2.50929226 -38.4765625 2.50390625 C-39.29089752 2.50289917 -40.10523254 2.50189209 -40.94424438 2.50085449 C-69.86871154 2.52476744 -100.59663854 3.65338488 -128.73046875 10.8671875 C-131.76054114 11.63570865 -134.13051888 11.94740898 -137.2265625 11.75390625 C-137.2265625 11.09390625 -137.2265625 10.43390625 -137.2265625 9.75390625 C-91.90305693 -3.72429952 -46.6988987 -3.6851125 0 0 Z " fill="#020202" transform="translate(302.2265625,219.24609375)"/>
<path d="M0 0 C3.21364094 0.00316759 6.4263638 -0.02044343 9.63989258 -0.0456543 C26.31527722 -0.09652743 42.27755972 1.60262553 58.5324707 5.31567383 C59.2035939 5.46821121 59.8747171 5.6207486 60.56617737 5.77790833 C62.4230957 6.25317383 62.4230957 6.25317383 65.2824707 7.31567383 C65.6124707 8.30567383 65.9424707 9.29567383 66.2824707 10.31567383 C65.56188477 10.20610352 64.84129883 10.0965332 64.09887695 9.98364258 C60.95539997 9.51947971 57.80864535 9.08448221 54.66040039 8.65405273 C53.04717616 8.42449126 51.43581398 8.18152166 49.82641602 7.92651367 C35.28320798 5.62288264 20.97918313 5.01677007 6.2824707 5.00317383 C5.41745941 4.9997699 4.55244812 4.99636597 3.66122437 4.99285889 C-20.58583738 4.93822442 -47.80236564 6.23274824 -66.7175293 23.31567383 C-70.52930927 28.71569545 -71.72550648 33.82836671 -72.7175293 40.31567383 C-73.41620117 40.34145508 -74.11487305 40.36723633 -74.8347168 40.39379883 C-75.74479492 40.45051758 -76.65487305 40.50723633 -77.5925293 40.56567383 C-78.49745117 40.61208008 -79.40237305 40.65848633 -80.3347168 40.70629883 C-82.88863473 41.07178531 -82.88863473 41.07178531 -84.0378418 43.36254883 C-84.37428711 44.3293457 -84.37428711 44.3293457 -84.7175293 45.31567383 C-91.80455407 43.94399161 -98.79840445 42.37668974 -105.7175293 40.31567383 C-106.0300293 37.06567383 -106.0300293 37.06567383 -105.7175293 33.31567383 C-102.90351079 30.2884721 -101.30573086 29.38038247 -97.16674805 28.92504883 C-95.92538086 28.97145508 -94.68401367 29.01786133 -93.4050293 29.06567383 C-92.15077148 29.10176758 -90.89651367 29.13786133 -89.60424805 29.17504883 C-88.17532227 29.2446582 -88.17532227 29.2446582 -86.7175293 29.31567383 C-85.64578166 32.96755465 -85.95341463 35.58000211 -86.7175293 39.31567383 C-85.2325293 39.81067383 -85.2325293 39.81067383 -83.7175293 40.31567383 C-83.45456055 39.46231445 -83.1915918 38.60895508 -82.9206543 37.72973633 C-81.45847993 33.58057919 -79.53901028 29.77476016 -77.5300293 25.8671875 C-76.00034066 22.88186534 -74.53663353 19.90957197 -73.1706543 16.84301758 C-72.69112305 15.78211914 -72.2115918 14.7212207 -71.7175293 13.62817383 C-71.0987793 12.19924805 -71.0987793 12.19924805 -70.4675293 10.74145508 C-67.25363408 6.28647979 -62.51574409 5.36546563 -57.36206055 4.43676758 C-55.75281649 4.19899356 -54.14205487 3.97129418 -52.5300293 3.75317383 C-51.39791016 3.58398438 -51.39791016 3.58398438 -50.24291992 3.41137695 C-47.40512594 3.00532969 -44.56396933 2.65630753 -41.7175293 2.31567383 C-41.04670319 2.23235809 -40.37587708 2.14904236 -39.6847229 2.0632019 C-26.44600376 0.45004329 -13.33119552 -0.02736163 0 0 Z M-100.7175293 34.31567383 C-100.7175293 34.97567383 -100.7175293 35.63567383 -100.7175293 36.31567383 C-99.1087793 36.50129883 -99.1087793 36.50129883 -97.4675293 36.69067383 C-94.33889314 37.21211319 -92.38272506 37.71655637 -89.7175293 39.31567383 C-90.3775293 37.33567383 -91.0375293 35.35567383 -91.7175293 33.31567383 C-95.49650581 32.26595813 -97.36672001 32.20590502 -100.7175293 34.31567383 Z " fill="#010101" transform="translate(240.717529296875,176.684326171875)"/>
<path d="M0 0 C5.89801175 -0.31596492 10.79747298 -0.01562407 16 3 C19.50678545 6.50678545 20.28249846 9.43777838 20.5 14.25 C20.12475368 22.63050111 17.79446454 28.72588058 11.625 34.5 C5.21962461 39.67437491 0.00415079 40.32016603 -8 40 C-7.85892253 38.54119891 -7.71197585 37.08296449 -7.5625 35.625 C-7.48128906 34.81289063 -7.40007812 34.00078125 -7.31640625 33.1640625 C-7 31 -7 31 -6 29 C-4.081875 28.7525 -4.081875 28.7525 -2.125 28.5 C0.0805347 28.11750207 0.0805347 28.11750207 2 27 C4.12502366 23.18170351 5.23714018 19.12685101 4.75 14.7578125 C4.07855189 12.61329758 4.07855189 12.61329758 0.9375 11.75 C-0.5165625 11.37875 -0.5165625 11.37875 -2 11 C-1.85892253 9.54119891 -1.71197585 8.08296449 -1.5625 6.625 C-1.48128906 5.81289063 -1.40007812 5.00078125 -1.31640625 4.1640625 C-1 2 -1 2 0 0 Z " fill="#000000" transform="translate(178,256)"/>
<path d="M0 0 C10.72511025 -0.76974475 10.72511025 -0.76974475 15.3125 2 C17.2799168 5.49762986 17.40167809 7.21679635 16.66796875 11.07421875 C15.70197315 13.8592236 13.89954281 15.78386672 12 18 C12.33 18.99 12.66 19.98 13 21 C13.61600642 25.02353559 13.88041726 28.53715286 11.73046875 32.109375 C9.66092634 34.54650037 7.87713907 36.56143047 5 38 C2.7927077 38.07092842 0.58332548 38.08415025 -1.625 38.0625 C-2.81351562 38.05347656 -4.00203125 38.04445313 -5.2265625 38.03515625 C-6.14179688 38.02355469 -7.05703125 38.01195312 -8 38 C-7.125 30.25 -7.125 30.25 -6 28 C-4.35636866 27.27840576 -2.68949614 26.60648579 -1 26 C-1 25.34 -1 24.68 -1 24 C-2.32 23.34 -3.64 22.68 -5 22 C-4.03108808 16.5388601 -4.03108808 16.5388601 -3 14 C-0.375 12.5 -0.375 12.5 2 12 C1.01 11.34 0.02 10.68 -1 10 C-0.67 6.7 -0.34 3.4 0 0 Z " fill="#010101" transform="translate(274,257)"/>
<path d="M0 0 C4.62 0 9.24 0 14 0 C13.26854384 7.99450674 11.29725079 15.70972075 9.4375 23.5 C9.10443407 24.90876352 8.7717485 26.31761702 8.43945312 27.7265625 C7.63138595 31.15228369 6.81553854 34.57601575 6 38 C1.05 38 -3.9 38 -9 38 C-7.03078636 28.45769349 -5.02995166 18.92567422 -2.8125 9.4375 C-2.64588867 8.71828369 -2.47927734 7.99906738 -2.30761719 7.25805664 C-1.12275694 2.24551388 -1.12275694 2.24551388 0 0 Z " fill="#010101" transform="translate(256,257)"/>
<path d="M0 0 C1.51400391 0.01740234 1.51400391 0.01740234 3.05859375 0.03515625 C4.07050781 0.04417969 5.08242188 0.05320312 6.125 0.0625 C7.29869141 0.07990234 7.29869141 0.07990234 8.49609375 0.09765625 C7.22647108 4.13267232 5.73892268 7.86837647 3.8515625 11.65234375 C3.08295898 13.19341797 3.08295898 13.19341797 2.29882812 14.765625 C1.76580078 15.82394531 1.23277344 16.88226563 0.68359375 17.97265625 C0.16216797 19.02324219 -0.35925781 20.07382812 -0.89648438 21.15625 C-2.39958535 24.15494583 -3.94411082 27.12813994 -5.50390625 30.09765625 C-5.91455322 30.93006836 -6.3252002 31.76248047 -6.74829102 32.62011719 C-7.86554113 34.69767312 -8.85754826 36.40888622 -10.50390625 38.09765625 C-14.0546875 38.87890625 -14.0546875 38.87890625 -17.81640625 38.59765625 C-19.07066406 38.52546875 -20.32492187 38.45328125 -21.6171875 38.37890625 C-22.56980469 38.28609375 -23.52242188 38.19328125 -24.50390625 38.09765625 C-24.02013268 32.91724765 -21.34040497 29.41036673 -18.50390625 25.22265625 C-17.5043614 23.7162675 -16.50700739 22.20842301 -15.51171875 20.69921875 C-15.00930664 19.93770508 -14.50689453 19.17619141 -13.98925781 18.39160156 C-11.28646289 14.21746266 -8.7599168 9.93960033 -6.234375 5.65673828 C-2.95919468 0.11541321 -2.95919468 0.11541321 0 0 Z " fill="#000000" transform="translate(310.50390625,256.90234375)"/>
<path d="M0 0 C0.58569597 8.11607277 -1.58511928 15.68258668 -3.5 23.5 C-3.83806458 24.90865643 -4.1753114 26.31750938 -4.51171875 27.7265625 C-5.33172101 31.15336079 -6.16278917 34.57735997 -7 38 C-11.73526074 37.36517708 -13.96383749 36.82331576 -17 33 C-19.41643327 25.75070018 -18.48318736 18.19800594 -15.40625 11.296875 C-12.38175403 6.35686492 -6.2147339 0 0 0 Z " fill="#010101" transform="translate(173,257)"/>
<path d="M0 0 C0.99 0 1.98 0 3 0 C3.57497079 4.01944343 4.14444235 8.03962508 4.70898438 12.06054688 C4.90151014 13.42631688 5.09549771 14.79188169 5.29101562 16.15722656 C5.5729227 18.12769946 5.84901642 20.09900124 6.125 22.0703125 C6.29257812 23.25383301 6.46015625 24.43735352 6.6328125 25.65673828 C7 29 7 29 7 35 C2.05 35 -2.9 35 -8 35 C-8 33.35 -8 31.7 -8 30 C-9.98 30 -11.96 30 -14 30 C-12.8905928 26.51329166 -11.73662334 23.22515763 -10 20 C-9.34 20 -8.68 20 -8 20 C-7.86271484 18.74316406 -7.86271484 18.74316406 -7.72265625 17.4609375 C-6.89195787 13.4825658 -5.31535657 10.1873497 -3.4375 6.625 C-3.10814453 5.98433594 -2.77878906 5.34367187 -2.43945312 4.68359375 C-1.63360518 3.11861368 -0.81781507 1.55875979 0 0 Z " fill="#010101" transform="translate(321,260)"/>
<path d="M0 0 C1.65148544 0.0001133 1.65148544 0.0001133 3.33633423 0.00022888 C4.52906952 0.00539017 5.72180481 0.01055145 6.95068359 0.01586914 C8.16863617 0.01728409 9.38658875 0.01869904 10.64144897 0.02015686 C14.54403099 0.025769 18.44655632 0.0383236 22.34912109 0.05102539 C24.98974527 0.05603882 27.63037034 0.060602 30.27099609 0.06469727 C36.75539054 0.07574238 43.23975177 0.09249237 49.72412109 0.11352539 C50.21912109 2.58852539 50.21912109 2.58852539 50.72412109 5.11352539 C31.58412109 5.11352539 12.44412109 5.11352539 -7.27587891 5.11352539 C-7.27587891 3.79352539 -7.27587891 2.47352539 -7.27587891 1.11352539 C-4.70454432 -0.1721419 -2.8787079 -0.00657239 0 0 Z " fill="#010101" transform="translate(334.27587890625,311.886474609375)"/>
<path d="M0 0 C7.79621694 -0.02528819 15.59242336 -0.04284068 23.38867188 -0.05493164 C26.04264725 -0.05997042 28.69661984 -0.06680151 31.35058594 -0.07543945 C35.15821011 -0.08752489 38.96579769 -0.09323275 42.7734375 -0.09765625 C43.96617279 -0.10281754 45.15890808 -0.10797882 46.38778687 -0.11329651 C47.48877716 -0.11337204 48.58976746 -0.11344757 49.72412109 -0.11352539 C51.1830629 -0.11685631 51.1830629 -0.11685631 52.67147827 -0.12025452 C55 0 55 0 57 1 C57 2.32 57 3.64 57 5 C37.86 5 18.72 5 -1 5 C-0.67 3.35 -0.34 1.7 0 0 Z " fill="#010101" transform="translate(102,312)"/>
<path d="M0 0 C1.9375 0.25 1.9375 0.25 4 1 C4.66 1.99 5.32 2.98 6 4 C6.66 2.68 7.32 1.36 8 0 C9.32 0.33 10.64 0.66 12 1 C12 5.29 12 9.58 12 14 C10.35 14 8.7 14 7 14 C6.34 13.34 5.68 12.68 5 12 C4.67 12.66 4.34 13.32 4 14 C2.35 14 0.7 14 -1 14 C-1.02685938 11.85423363 -1.04633088 9.70837355 -1.0625 7.5625 C-1.07410156 6.36753906 -1.08570313 5.17257812 -1.09765625 3.94140625 C-1 1 -1 1 0 0 Z " fill="#010101" transform="translate(258,308)"/>
<path d="M0 0 C1.67012983 0.06378968 3.33780985 0.20028115 5 0.375 C5.9075 0.46523438 6.815 0.55546875 7.75 0.6484375 C10 1 10 1 11 2 C11.07244053 4.01964199 11.08377188 6.04167124 11.0625 8.0625 C11.05347656 9.16722656 11.04445312 10.27195312 11.03515625 11.41015625 C11.02355469 12.26480469 11.01195312 13.11945313 11 14 C7 14 3 14 -1 14 C-1.02685938 11.85423363 -1.04633088 9.70837355 -1.0625 7.5625 C-1.07410156 6.36753906 -1.08570313 5.17257812 -1.09765625 3.94140625 C-1 1 -1 1 0 0 Z M4 4 C4 4.66 4 5.32 4 6 C4.66 6 5.32 6 6 6 C6 5.34 6 4.68 6 4 C5.34 4 4.68 4 4 4 Z " fill="#010101" transform="translate(229,308)"/>
<path d="M0 0 C2.03125 0.0859375 2.03125 0.0859375 4.5 0.375 C5.3146875 0.46523438 6.129375 0.55546875 6.96875 0.6484375 C9 1 9 1 10 2 C10.0721365 4.26328256 9.99648089 6.51004593 9.9375 8.7734375 C9.89739209 11.17464965 9.89739209 11.17464965 11 14 C7 14 3 14 -1 14 C-1.02685938 11.85423363 -1.04633088 9.70837355 -1.0625 7.5625 C-1.07410156 6.36753906 -1.08570313 5.17257812 -1.09765625 3.94140625 C-1 1 -1 1 0 0 Z M3 4 C3 4.66 3 5.32 3 6 C3.66 6 4.32 6 5 6 C5 5.34 5 4.68 5 4 C4.34 4 3.68 4 3 4 Z " fill="#010101" transform="translate(207,308)"/>
<path d="M0 0 C1.9375 2.5625 1.9375 2.5625 3 5 C-0.34252724 5.07427838 -2.8035914 5.06546953 -6 4 C-6.33 4.99 -6.66 5.98 -7 7 C-5.68 7.66 -4.36 8.32 -3 9 C-3 8.34 -3 7.68 -3 7 C-1.02 7 0.96 7 3 7 C2.13088303 9.75220373 1.5527839 11.5656698 -0.75 13.375 C-3.91131822 14.25314395 -5.87936541 13.99594721 -9 13 C-11.51029235 10.16579896 -12.01329687 8.66484335 -11.9375 4.875 C-11 2 -11 2 -9.375 0.0625 C-5.8542329 -1.51258002 -3.65765818 -1.06404602 0 0 Z " fill="#010101" transform="translate(184,309)"/>
<path d="M0 0 C2.32421875 0.16015625 2.32421875 0.16015625 5 1 C6.58203125 3.43359375 6.58203125 3.43359375 7.8125 6.4375 C8.44091797 7.92056641 8.44091797 7.92056641 9.08203125 9.43359375 C10 12 10 12 10 14 C8.02 14 6.04 14 4 14 C4 13.34 4 12.68 4 12 C3.443125 12.33 2.88625 12.66 2.3125 13 C-0.30284522 14.1309601 -2.1806646 14.15662974 -5 14 C-4.46515599 8.65155992 -2.53309233 4.64203897 0 0 Z " fill="#010101" transform="translate(292,308)"/>
<path d="M0 0 C2.32421875 0.08984375 2.32421875 0.08984375 5 1 C6.58203125 3.94140625 6.58203125 3.94140625 7.8125 7.5625 C8.23144531 8.76003906 8.65039062 9.95757812 9.08203125 11.19140625 C9.38496094 12.11824219 9.68789062 13.04507812 10 14 C8.02 14 6.04 14 4 14 C4 13.34 4 12.68 4 12 C2.68 12 1.36 12 0 12 C0 12.66 0 13.32 0 14 C-1.65 14 -3.3 14 -5 14 C-4.46515599 8.65155992 -2.53309233 4.64203897 0 0 Z " fill="#010101" transform="translate(194,308)"/>
<path d="M0 0 C1.23556641 0.01740234 1.23556641 0.01740234 2.49609375 0.03515625 C3.32238281 0.04417969 4.14867187 0.05320312 5 0.0625 C5.63808594 0.07410156 6.27617187 0.08570313 6.93359375 0.09765625 C6.92199219 0.773125 6.91039062 1.44859375 6.8984375 2.14453125 C6.88941406 3.0365625 6.88039062 3.92859375 6.87109375 4.84765625 C6.85949219 5.729375 6.84789062 6.61109375 6.8359375 7.51953125 C6.85531554 10.36719101 6.85531554 10.36719101 7.93359375 14.09765625 C4.30359375 14.09765625 0.67359375 14.09765625 -3.06640625 14.09765625 C-3.09326563 11.95188988 -3.11273713 9.8060298 -3.12890625 7.66015625 C-3.14050781 6.46519531 -3.15210938 5.27023437 -3.1640625 4.0390625 C-3.03472503 0.14341801 -3.03472503 0.14341801 0 0 Z " fill="#010101" transform="translate(246.06640625,307.90234375)"/>
<path d="M0 0 C0.74334595 0.00141495 1.48669189 0.0028299 2.25256348 0.00428772 C4.59550229 0.00982516 6.93834073 0.02236534 9.28125 0.03515625 C10.88281111 0.04017936 12.48437373 0.04474083 14.0859375 0.04882812 C17.98441288 0.05977398 21.8828145 0.07699429 25.78125 0.09765625 C25.45125 1.41765625 25.12125 2.73765625 24.78125 4.09765625 C4.48625 3.60265625 4.48625 3.60265625 -16.21875 3.09765625 C-16.21875 2.43765625 -16.21875 1.77765625 -16.21875 1.09765625 C-10.76235345 0.32466674 -5.50606478 -0.04045791 0 0 Z " fill="#050505" transform="translate(232.21875,182.90234375)"/>
<path d="M0 0 C3.85415052 -0.02923559 7.70827215 -0.04687777 11.5625 -0.0625 C12.64853516 -0.07087891 13.73457031 -0.07925781 14.85351562 -0.08789062 C20.34832611 -0.10459218 25.58961935 0.01417741 31 1 C30.67 1.99 30.34 2.98 30 4 C25.75022954 4.11611395 21.50086663 4.18722349 17.25 4.25 C16.0434375 4.28351563 14.836875 4.31703125 13.59375 4.3515625 C11.85351562 4.37089844 11.85351562 4.37089844 10.078125 4.390625 C9.00981445 4.41157227 7.94150391 4.43251953 6.84082031 4.45410156 C3.35049382 3.89617725 2.20317005 2.68656601 0 0 Z " fill="#0B0A0B" transform="translate(245,217)"/>
<path d="M0 0 C1.98 0.495 1.98 0.495 4 1 C4 3.97 4 6.94 4 10 C5.65 10 7.3 10 9 10 C9 11.32 9 12.64 9 14 C5.7 14 2.4 14 -1 14 C-1.02685938 11.85423363 -1.04633088 9.70837355 -1.0625 7.5625 C-1.07410156 6.36753906 -1.08570313 5.17257812 -1.09765625 3.94140625 C-1 1 -1 1 0 0 Z " fill="#010101" transform="translate(305,308)"/>
<path d="M0 0 C3.3 0 6.6 0 10 0 C10.33 1.32 10.66 2.64 11 4 C9.68 4 8.36 4 7 4 C7 7.3 7 10.6 7 14 C5.68 14 4.36 14 3 14 C3 10.7 3 7.4 3 4 C1.68 4 0.36 4 -1 4 C-0.67 2.68 -0.34 1.36 0 0 Z " fill="#010101" transform="translate(274,308)"/>
<path d="M0 0 C0 0.66 0 1.32 0 2 C0.66 2.33 1.32 2.66 2 3 C-5.92 3 -13.84 3 -22 3 C-22 2.34 -22 1.68 -22 1 C-14.66236293 -0.17402193 -7.41834582 -0.09377123 0 0 Z " fill="#0E0E0C" transform="translate(238,183)"/>
<path d="M0 0 C2.64 0 5.28 0 8 0 C8 1.65 8 3.3 8 5 C5.36 5 2.72 5 0 5 C0 3.35 0 1.7 0 0 Z " fill="#090708" transform="translate(298,220)"/>
<path d="M0 0 C-0.33 0.66 -0.66 1.32 -1 2 C-4.96 2 -8.92 2 -13 2 C-13 1.67 -13 1.34 -13 1 C-11.58622218 0.63447197 -10.16879424 0.28304505 -8.75 -0.0625 C-7.96109375 -0.25972656 -7.1721875 -0.45695313 -6.359375 -0.66015625 C-3.89605178 -1.01497267 -2.34395868 -0.76877544 0 0 Z " fill="#030303" transform="translate(270,218)"/>
</svg>
